<svg xmlns="http://www.w3.org/2000/svg" width="228" height="56" viewBox="0 0 228 56"><g><g><g><g><path fill="#1f1b20" d="M12.278 25.654h-2.253c-2.89 0-5.258-.895-7.107-2.658C.982 20.974 0 18.49 0 15.601V3.293c0-.895.318-1.675.982-2.31C1.647.317 2.398 0 3.293 0c.954 0 1.734.318 2.37.982.664.636 1.01 1.416 1.01 2.311v12.308c0 .635.116 1.328.376 2.05.55.867 1.445 1.33 2.774 1.33H32.183c2.918 0 5.287.895 7.107 2.658 1.936 2.022 2.918 4.506 2.918 7.395V52.58c0 .895-.317 1.647-.982 2.311-.636.636-1.416.982-2.282.982-.954 0-1.763-.346-2.398-.982-.665-.664-.982-1.416-.982-2.311V29.034c0-.635-.145-1.328-.376-2.022-.549-.895-1.473-1.358-2.773-1.358z"/></g><g><g><path fill="#1f1b20" d="M6.674 42.502v10.082c0 .896-.347 1.647-.983 2.311-.664.665-1.444.983-2.31.983-.954 0-1.763-.318-2.399-.983C.318 54.231 0 53.48 0 52.585V33.082c0-.895.318-1.646.982-2.31.636-.665 1.416-.983 2.311-.983.954 0 1.734.318 2.398.982.636.665.983 1.416.983 2.311z"/></g><g><path fill="#1f1b20" d="M220.458 25.654h4.247c.895 0 1.675-.318 2.31-.983.665-.635.983-1.444.983-2.398 0-.895-.318-1.675-.982-2.31-.636-.665-1.416-.983-2.311-.983h-19.53c-2.89 0-5.287.924-7.194 2.745-1.878 1.877-2.831 4.304-2.831 7.309v23.545c0 .896.318 1.676.982 2.311.636.665 1.445.982 2.398.982.867 0 1.647-.317 2.311-.982.636-.635.983-1.415.983-2.31V29.033c0-2.254 1.069-3.38 3.264-3.38z"/></g><g><path fill="#1f1b20" d="M105.675 43.802v8.782c0 .896-.318 1.647-.983 2.311-.635.665-1.415.983-2.31.983-.925 0-1.734-.318-2.37-.983-.664-.664-.982-1.415-.982-2.31V33.082c0-.895.318-1.646.982-2.31a3.064 3.064 0 0 1 2.283-.983c.953 0 1.762.318 2.397.982.665.665.983 1.416.983 2.311z"/></g><g><path fill="#1f1b20" d="M106.57 25.654h-4.275a3.064 3.064 0 0 1-2.283-.983c-.664-.635-.982-1.444-.982-2.398 0-.895.318-1.675.982-2.31a3.064 3.064 0 0 1 2.283-.983h25.972c2.889 0 5.287.924 7.193 2.745 1.878 1.877 2.832 4.304 2.832 7.309v23.545c0 .896-.318 1.647-.983 2.311-.635.636-1.444.982-2.398.982-.895 0-1.646-.346-2.31-.982-.636-.664-.954-1.415-.954-2.31V29.033c0-2.254-1.098-3.38-3.294-3.38z"/></g><g><path fill="#1f1b20" d="M52.058 52.926c-1.791-1.85-2.658-4.218-2.658-7.107V29.034c0-2.543.722-4.738 2.196-6.558 1.849-2.34 4.39-3.496 7.713-3.496h22.535c2.889 0 5.344.982 7.366 2.947 1.763 1.82 2.658 4.218 2.658 7.107v16.843c0 2.513-.75 4.68-2.224 6.5-1.907 2.34-4.507 3.495-7.8 3.495H59.396c-2.89 0-5.345-.982-7.338-2.946zm5.316-4.132c.722.26 1.386.405 2.022.405h22.563c1.358 0 2.311-.462 2.86-1.358.26-.693.376-1.387.376-2.022V28.83c0-1.3-.434-2.253-1.33-2.773-.693-.26-1.386-.404-2.021-.404h-22.65c-1.3 0-2.225.462-2.774 1.357a5.792 5.792 0 0 0-.375 2.023V46.02c0 1.3.433 2.225 1.329 2.773z"/></g><g><path fill="#1f1b20" d="M148.178 52.926c-1.791-1.85-2.658-4.218-2.658-7.107V29.034c0-2.543.722-4.738 2.196-6.558 1.849-2.34 4.42-3.496 7.713-3.496h22.534c2.89 0 5.345.982 7.367 2.947 1.763 1.82 2.658 4.218 2.658 7.107v16.843c0 2.513-.75 4.68-2.224 6.5-1.907 2.34-4.507 3.495-7.8 3.495h-22.42c-2.917 0-5.373-.982-7.366-2.946zm5.316-4.132c.722.26 1.386.405 2.05.405h22.535c1.358 0 2.311-.462 2.86-1.358.26-.693.376-1.387.376-2.022V28.83c0-1.3-.434-2.253-1.3-2.773-.723-.26-1.416-.404-2.052-.404h-22.65c-1.3 0-2.224.462-2.773 1.357a5.792 5.792 0 0 0-.375 2.023V46.02c0 1.3.433 2.225 1.329 2.773z"/></g></g></g></g></g></svg>