<svg xmlns="http://www.w3.org/2000/svg" width="197" height="40" viewBox="0 0 197 40"><g><g><g><g/><g><path fill="#d7b399" d="M9.339 14.723L4.072 19.99l5.267 5.267 5.266-5.267z"/></g><g><path fill="#d7b399" d="M19.994 4.085l-5.266 5.267 5.266 5.267 5.267-5.267z"/></g><g><path fill="#d7b399" d="M19.991 25.394l-5.266 5.266 5.266 5.267 5.267-5.267z"/></g><g><path fill="#d7b399" d="M30.647 14.727l-5.267 5.266 5.267 5.267 5.267-5.267z"/></g><g><path fill="#d7b399" d="M28.61 12.687l-5.266 5.266 2.039 2.04 5.266-5.267z"/></g><g><path fill="#d7b399" d="M17.955 23.353l-5.267 5.267 2.04 2.039 5.266-5.267z"/></g><g><path fill="#d7b399" d="M25.259 9.353l-5.267 5.267 2.04 2.039 5.266-5.267z"/></g><g><path fill="#d7b399" d="M14.618 20.005L9.35 25.272l2.04 2.039 5.266-5.267z"/></g><g><path fill="#d7b399" d="M11.379 12.686l-2.04 2.04 5.267 5.266 2.04-2.039z"/></g><g><path fill="#d7b399" d="M14.727 9.35l-2.04 2.039 5.267 5.266 2.04-2.039z"/></g><g><path fill="#d7b399" d="M25.38 19.99l-2.04 2.04 5.267 5.266 2.04-2.039z"/></g><g><path fill="#d7b399" d="M22.046 23.342l-2.04 2.04 5.267 5.266 2.04-2.04z"/></g><g><path fill="#d7b399" d="M27.306 32.693l-2.033-2.033-5.27 5.27-5.27-5.27-2.033 2.033 7.303 7.303z"/></g><g><path fill="#d7b399" d="M9.336 14.733L7.303 12.7 0 20.003l7.303 7.303 2.033-2.033-5.27-5.27z"/></g><g><path fill="#d7b399" d="M32.693 12.7l-2.033 2.033 5.27 5.27-5.27 5.27 2.033 2.033 7.303-7.303z"/></g><g><path fill="#d7b399" d="M25.273 9.336l2.033-2.033L20.003 0 12.7 7.303l2.033 2.033 5.27-5.27z"/></g></g><g><g><text dominant-baseline="text-before-edge" style="text-transform:uppercase;font-kerning:normal" fill="#fff" font-family="'Montserrat','Montserrat-Bold'" font-size="24" letter-spacing="1.2" transform="translate(60 6)"><tspan style="text-transform:uppercase;font-kerning:normal">the loop</tspan></text></g></g></g></g></svg>