<svg xmlns="http://www.w3.org/2000/svg" width="30" height="28" viewBox="0 0 30 28"><g><g><g/><g><g><g><path fill="#212121" d="M28.624 10.493c.826 0 1.376.55 1.376 1.376v.413L26.56 25.08c-.276 1.239-1.376 2.064-2.615 2.064H6.055c-1.238 0-2.34-.963-2.615-2.064L0 12.282v-.413c0-.826.55-1.376 1.376-1.376h6.606l6.055-9.083c.275-.412.688-.55 1.1-.55.414 0 .826.275 1.102.55l6.055 9.083zm-9.358 0l-4.128-6.055-4.129 6.055zM17.89 18.75a2.76 2.76 0 0 0-2.752-2.752 2.76 2.76 0 0 0-2.753 2.752 2.76 2.76 0 0 0 2.753 2.752 2.76 2.76 0 0 0 2.752-2.752z"/></g></g></g></g></g></svg>